name new_emg_signals
nRows=91
nColumns=7
 
endheader
time	LGLTMED	LRF	LADDLONG	LBF	LTA	LGM
1.0499999999999776	0.8926688428928989	0.9340966202772278	0.8581981322597234	0.989218130178294	0.9608007119765029	0.9046987087684232
1.0599999999999774	0.8897111563798648	0.9297908719215286	0.8565637170339866	0.9873625098758836	0.9636425645072536	0.9053479651496328
1.0699999999999772	0.8866489343165885	0.9254228495286452	0.8548088328036959	0.985386628190195	0.966372384566782	0.905947619412295
1.079999999999977	0.8834895874522133	0.9209993985725864	0.8529354929395757	0.9832965050790432	0.96899062623991	0.9065024729276556
1.0899999999999768	0.8802404981551168	0.9165272541030066	0.8509457467570999	0.9810981545138332	0.9714977453564372	0.9070171972551104
1.0999999999999766	0.8769090090850233	0.9120130359953176	0.8488416840979204	0.9787975730134896	0.9738942034741624	0.9074963246281752
1.1099999999999763	0.8735024119555547	0.9074632444504412	0.8466254397858167	0.976400728336506	0.9761804721149542	0.90794423885065
1.1199999999999761	0.8700279364090664	0.9028842557444744	0.8442991979202081	0.9739135483676804	0.9783570372318384	0.908365166629644
1.129999999999976	0.8664927390266726	0.8982823182280707	0.8418651959767113	0.9713419102361124	0.980424403882267	0.908763169370822
1.1399999999999757	0.8629038924966081	0.893663548573605	0.8393257286908498	0.968691629700429	0.9823831010799484	0.9091421354610753
1.1499999999999755	0.8592683749640727	0.8890339282668274	0.8366831517075605	0.9659684508366684	0.9842336867951228	0.9095057730626784
1.1599999999999753	0.8555930595854392	0.884399300339221	0.8339398849839872	0.9631780360627152	0.985976753070694	0.9098576034412836
1.169999999999975	0.8518847043096688	0.8797653663375865	0.8310984159367089	0.960325956531653	0.9876129312188048	0.9102009548478344
1.1799999999999748	0.8481499419108443	0.8751376835290712	0.8281613023261768	0.957417682924214	0.9891428970595548	0.9105389569718148
1.1899999999999746	0.8443952702959402	0.8705216623409994	0.8251311748720912	0.9544585766688648	0.990567376160858	0.910874535981788
1.1999999999999744	0.84062704311249	0.8659225640362661	0.8220107395940295	0.9514538816161988	0.9918871490357328	0.911210410167861
1.2099999999999742	0.8368514606807752	0.8613454986247584	0.8188027798727637	0.9484087161930213	0.9931030562512938	0.9115490861999976
1.219999999999974	0.8330745612756967	0.8567954230113238	0.8155101582285508	0.9453280660598424	0.9942160034016672	0.9118928560148348
1.2299999999999738	0.8293022127831648	0.8522771393805543	0.8121358178140881	0.9422167772942848	0.9952269658953586	0.9122437943418412
1.2399999999999736	0.8255401047556488	0.8477952938188439	0.8086827836203477	0.93907955012121	0.99613699350546	0.9126037568774336
1.2499999999999734	0.8217937408900587	0.8433543751739193	0.8051541633938064	0.935920933209071	0.9969472146293468	0.9129743791133478
1.2599999999999731	0.8180684319495164	0.8389587141509455	0.8015531482626718	0.9327453185500698	0.9976588402032612	0.9133570758237076
1.269999999999973	0.8143692891481518	0.8346124826430891	0.7978830130689472	0.92955693693942	0.9982731672181142	0.913753041212364
1.2799999999999727	0.8107012180156234	0.8303196932934483	0.794147116402493	0.9263598540664786	0.9987915817867674	0.914163249719685
1.2899999999999725	0.8070689127552777	0.8260841992834564	0.7903489003333171	0.923157967227438	0.9992155617201404	0.9145884574850436
1.2999999999999723	0.80347685110754	0.8219096943415334	0.7864918898390615	0.9199550026662608	0.999546678577462	0.915029204458767
1.309999999999972	0.7999292897282362	0.8177997129635773	0.7825796919264095	0.916754513547122	0.9997865991649576	0.9154858171555408
1.3199999999999719	0.7964302600899603	0.813757630834972	0.778615994446817	0.9135598785585004	0.9999370864665592	0.9159584120403372
1.3299999999999716	0.7929835649130946	0.8097866654420532	0.7746045646084986	0.9103743011461296	1.0	0.9164468995372742
1.3399999999999714	0.789592775131363	0.8058898768606837	0.7705492471879075	0.9072008093693428	0.9999772955987408	0.9169509886508502
1.3499999999999712	0.7862612273947038	0.8020701687110365	0.76645396244453	0.9040422563735654	0.9998710246247088	0.917470192187078
1.359999999999971	0.782992022110566	0.7983302892710401	0.7623227037432487	0.9009013214692216	0.9996833326196024	0.9180038325598768
1.3699999999999708	0.7797880220231316	0.7946728327443146	0.7581595348889493	0.8977805118051695	0.9994164574048804	0.918551048166414
1.3799999999999706	0.776651851329155	0.791100240681074	0.7539685871783621	0.8946821646214472	0.9990727266422288	0.9191108003140483
1.3899999999999704	0.7735858953284515	0.7876148035510401	0.7497540561743341	0.8916084500636697	0.998654554868456	0.9196818806805298
1.3999999999999702	0.7705923006066832	0.7842186624669972	0.7455201982073228	0.8885613745382852	0.9981644400214282	0.920262919288599
1.40999999999997	0.7676729757474761	0.7809138110569214	0.7412713266080941	0.8855427845863513	0.9976049594775468	0.9208523929741748
1.4199999999999697	0.7648295925701655	0.777702097481594	0.7370118076752273	0.8825543712513212	0.9969787656251282	0.921448634325532
1.4299999999999695	0.7620635878884541	0.7745852265933582	0.7327460563811355	0.8795976749150889	0.9962885810014722	0.9220498410678312
1.4399999999999693	0.7593761657839596	0.7715647622298343	0.7284785318212075	0.8766740905748576	0.9955371930243364	0.922654085864481
1.449999999999969	0.7567683003869844	0.7686421296352983	0.7242137324118535	0.8737848735321185	0.9947274483506604	0.9232593265036692
1.4599999999999689	0.754240739154718	0.7658186180012615	0.7199561908438409	0.8709311454638474	0.9938622468966	0.9238634164353222
1.4699999999999687	0.7517940066353576	0.7630953831178666	0.7157104687979199	0.8681139008454875	0.9929445355532244	0.9244641156212452
1.4799999999999685	0.749428408704765	0.7604734501272253	0.7114811514302736	0.8653340136949279	0.991977301631422	0.9250591016586576
1.4899999999999682	0.7471440372607835	0.7579537163692871	0.7072728416369074	0.8625922446070619	0.9909635660678217	0.9256459811356532
1.499999999999968	0.7449407753589042	0.7555369543100221	0.7030901541086305	0.8598892480478977	0.989906376421246	0.92622230117612
1.5099999999999678	0.7428183027719865	0.7532238145414198	0.6989377091919915	0.8572255798761816	0.9888087996873988	0.926785561131196
1.5199999999999676	0.7407761019558092	0.75101482884316	0.6948201265753959	0.8546017050586135	0.9876739149580848	0.9273332243740852
1.5299999999999692	0.7388134644012403	0.7489104132976894	0.6907420188232832	0.8520180055424159	0.9865048059517691	0.9278627301547172
1.539999999999969	0.7369294973523016	0.7469108714518482	0.6867079847838474	0.849474788247023	0.9853045534439976	0.9283715054703162
1.5499999999999687	0.7351231308679811	0.7450163975192851	0.6827226028980996	0.8469722931349721	0.9840762276288892	0.9288569769072345
1.5599999999999667	0.7333931252036756	0.7432270796172238	0.6787904244389649	0.8445107013217479	0.9828228804452066	0.929316582408616
1.5699999999999665	0.7317380784863786	0.7415429030309141	0.6749159667093307	0.8420901431855261	0.9815475379010254	0.9297477829210572
1.5799999999999663	0.730156434655907	0.7399637534987723	0.6711037062269564	0.8397107064387621	0.9802531924304076	0.9301480738713436
1.589999999999966	0.7286464916428341	0.7384894205116249	0.6673580719229681	0.8373724441247249	0.9789427953134664	0.9305149964218808
1.5999999999999641	0.7272064097516858	0.7371196006196478	0.6636834383793925	0.8350753825022839	0.97761924918904	0.9308461484511412
1.609999999999964	0.725834220216313	0.7358539007405741	0.6600841191297376	0.8328195287829483	0.9762854006864388	0.9311391952033556
1.6199999999999637	0.7245278338926037	0.7346918414624042	0.656564360044854	0.8306048786853486	0.9749440332001384	0.931391879550307
1.6299999999999653	0.7232850500526714	0.7336328603326931	0.6531283328244274	0.8284314237728005	0.9735978598291284	0.9316020318077112
1.639999999999965	0.7221035652449386	0.7326763151251086	0.6497801286126698	0.8262991585395913	0.9722495165015602	0.931767579050646
1.6499999999999648	0.7209809821863866	0.7318214870726889	0.646523751755177	0.8242080872103525	0.970901555305537	0.9318865538785992
1.6599999999999646	0.7199148186569966	0.7310675840559091	0.6433631137122638	0.8221582302155998	0.9695564380487977	0.9319571025924724
1.6699999999999644	0.7189025163702427	0.7304137437327706	0.640302027142649	0.8201496303051086	0.9682165300726686	0.9319774927604532
1.6799999999999642	0.717941449797221	0.7298590365968277	0.6373442001696834	0.8181823582598505	0.9668840943480966	0.931946120162695
1.689999999999964	0.7170289349245753	0.7294024689483543	0.6344932308414931	0.8162565181635041	0.9655612858824768	0.9318615151131016
1.6999999999999638	0.7161622379287806	0.7290429857646502	0.6317526017961022	0.8143722521974467	0.9642501464653496	0.931722348160926
1.7099999999999635	0.7153385837511976	0.7287794734593406	0.6291256751431998	0.8125297449280302	0.9629525997791928	0.9315274351769832
1.7199999999999651	0.7145551645601232	0.7286107625265777	0.6266156875753933	0.8107292270614618	0.9616704468995372	0.9312757418303228
1.729999999999965	0.7138091480864363	0.7285356300731988	0.6242257457227377	0.8089709786476217	0.9604053622067265	0.9309663874608756
1.739999999999963	0.7130976858201761	0.7285528022467145	0.6219588217647771	0.8072553317187063	0.959158889729412	0.930598648352728
1.7499999999999627	0.7124179210553765	0.7286609565692028	0.6198177493138961	0.8055826723530007	0.9579324399373558	0.9301719604113438
1.7599999999999625	0.7117669967702526	0.7288587241869171	0.6178052195829804	0.8039534421563226	0.9567272869981976	0.9296859212472608
1.7699999999999623	0.7111420633293872	0.7291446920445047	0.6159237778495528	0.8023681391557473	0.9555445665096648	0.929140291667789
1.779999999999962	0.7105402859935255	0.7295174049913663	0.6141758202276941	0.8008273181015746	0.9543852737156728	0.9285349965777104
1.78999999999996	0.7099588522214499	0.7299753678266001	0.6125635907580224	0.7993315901761019	0.9532502622116726	0.9278701252905984
1.7999999999999599	0.7093949787481906	0.7305170472875422	0.6110891788244587	0.7978816221112015	0.9521402431424706	0.9271459312537886
1.8099999999999596	0.7088459184235157	0.7311408739859263	0.6097545169048975	0.7964781347209834	0.9510557848938354	0.9263628311923012
1.8199999999999612	0.7083089667949665	0.7318452442943336	0.6085613786610705	0.7951219008604608	0.9499973132779496	0.92552140367908
1.829999999999961	0.7077814684200497	0.7326285221855293	0.6075113773714286	0.7938137428269256	0.9489651122117256	0.9246223871405428
1.8399999999999608	0.7072608228923702	0.7334890410264836	0.6066059647090875	0.7925545292273993	0.94795932488626	0.9236666773079698
1.8499999999999606	0.7067444905686551	0.7344251053289863	0.6058464298653263	0.7913451713438098	0.9469799554252236	0.9226553241281468
1.8599999999999604	0.7062299979868905	0.7354349924582956	0.6052338990175016	0.7901866190334864	0.9460268710294614	0.9215895281496616
1.8699999999999601	0.7057149429693506	0.7365169543014322	0.6047693351384819	0.7890798562075566	0.9450998046037636	0.9204706364051418
1.87999999999996	0.7051969994070915	0.7376692188967084	0.6044535381436177	0.7880258959306209	0.9441983578600188	0.9193001378124238
1.8899999999999597	0.7046739217231731	0.7388899920257027	0.6042871453698206	0.7870257751848196	0.943322004888621	0.9180796581197422
1.8999999999999613	0.7041435490127242	0.7401774587682104	0.6042706323798899	0.7860805493394928	0.9424700961880352	0.9168109544216928
1.909999999999961	0.7036038088584045	0.7415297850199388	0.6044043140834486	0.7851912863661372	0.9416418631409336	0.915495909273382
1.9199999999999608	0.703052720821835	0.7429451189725822	0.6046883461638173	0.7843590608366636	0.940836422924988	0.9141365244305866
1.9299999999999589	0.7024883996133788	0.744421592556281	0.605122726798095	0.7835849477415514	0.9400527838461108	0.9127349142424732
1.9399999999999586	0.7019090579456553	0.745957322845852	0.6057072986559127	0.7828700161635399	0.939289851081547	0.9112932987224214
1.9499999999999584	0.7013130090786919	0.7475504134328695	0.606441751160546	0.7822153228419252	0.9385464328192176	0.9098139963222884
